<svg xmlns="http://www.w3.org/2000/svg" width="64" height="64" viewBox="0 0 64 64">
  <defs>
    <radialGradient id="bg64" cx="35%" cy="30%" r="65%">
      <stop offset="0%" stop-color="#fc6a66" stop-opacity="0.4"/>
      <stop offset="100%" stop-color="#ca1d13" stop-opacity="0.3"/>
    </radialGradient>
  </defs>

  <!-- 몸체 -->
  <ellipse cx="32" cy="40" rx="21.5" ry="21" fill="#fa342c"/>
  <ellipse cx="32" cy="40" rx="21.5" ry="21" fill="url(#bg64)"/>

  <!-- 광택 -->
  <ellipse cx="26" cy="33" rx="7" ry="4.5" fill="white" opacity="0.16"
           transform="rotate(-20 26 33)"/>

  <!-- 이파리 (몸체 위에 얹힘) -->
  <path d="M32,24 C28,25 22,26.5 21,25 C20,24 21,22 23,22.5 C26,23.5 30,24 32,24Z"
        fill="#2E7D32"/>
  <path d="M32,24 C36,25 42,26.5 43,25 C44,24 43,22 41,22.5 C38,23.5 34,24 32,24Z"
        fill="#2E7D32"/>
  <path d="M32,24 C29.5,22 26,18 27,16 C27.8,15 29.5,15 31,16.5 C32,18 32,22 32,24Z"
        fill="#43a047"/>
  <path d="M32,24 C34.5,22 38,18 37,16 C36.2,15 34.5,15 33,16.5 C32,18 32,22 32,24Z"
        fill="#43a047"/>
  <path d="M32,23.5 C31,20 30.5,15 31.5,13.5 C32,13 32.5,13 33,13.5 C33.5,15 33,20 32,23.5Z"
        fill="#43a047"/>
  <!-- 줄기 -->
  <path d="M31.5,17 Q31.8,14 32.3,13 Q32.8,14 32.8,17" fill="#2E7D32"/>

  <!-- 볼터치 -->
  <ellipse cx="19" cy="44" rx="3.8" ry="2.2" fill="#fed4d2" opacity="0.5"/>
  <ellipse cx="45" cy="44" rx="3.8" ry="2.2" fill="#fed4d2" opacity="0.5"/>

  <!-- 왼쪽 눈 -->
  <circle cx="26.5" cy="39" r="3.3" fill="#921708"/>
  <circle cx="27.7" cy="37.7" r="1.2" fill="white"/>

  <!-- 오른쪽 눈 -->
  <circle cx="37.5" cy="39" r="3.3" fill="#921708"/>
  <circle cx="38.7" cy="37.7" r="1.2" fill="white"/>

  <!-- 입 -->
  <path d="M30,44.5 Q32,47 34,44.5" stroke="#921708" stroke-width="1.1"
        fill="none" stroke-linecap="round"/>
</svg>
