<svg xmlns="http://www.w3.org/2000/svg" viewBox="0 0 512 512">
  <defs>
    <radialGradient id="bodyGrad" cx="35%" cy="30%" r="65%">
      <stop offset="0%" stop-color="#fc6a66" stop-opacity="0.45"/>
      <stop offset="100%" stop-color="#ca1d13" stop-opacity="0.35"/>
    </radialGradient>
  </defs>

  <!-- ===== 몸체 (먼저 그려서 뒤로) ===== -->
  <ellipse cx="256" cy="320" rx="170" ry="165" fill="#fa342c"/>
  <ellipse cx="256" cy="320" rx="170" ry="165" fill="url(#bodyGrad)"/>

  <!-- 광택 -->
  <ellipse cx="210" cy="270" rx="55" ry="38" fill="white" opacity="0.16"
           transform="rotate(-20 210 270)"/>

  <!-- ===== 이파리 (몸체 위에 얹힘, 별 모양 5갈래) ===== -->
  <!-- 왼쪽 아래 -->
  <path d="M256,195 C232,198 190,208 172,200 C165,190 172,178 186,182 C208,188 244,194 256,195Z"
        fill="#2E7D32"/>
  <!-- 오른쪽 아래 -->
  <path d="M256,195 C280,198 322,208 340,200 C347,190 340,178 326,182 C304,188 268,194 256,195Z"
        fill="#2E7D32"/>
  <!-- 왼쪽 위 -->
  <path d="M256,192 C236,182 205,162 195,145 C198,132 210,128 218,136 C232,150 250,180 256,192Z"
        fill="#43a047"/>
  <!-- 오른쪽 위 -->
  <path d="M256,192 C276,182 307,162 317,145 C314,132 302,128 294,136 C280,150 262,180 256,192Z"
        fill="#43a047"/>
  <!-- 가운데 위 -->
  <path d="M256,190 C248,172 240,140 246,122 C252,115 260,115 266,122 C272,140 264,172 256,190Z"
        fill="#43a047"/>

  <!-- 꼭지 줄기 -->
  <path d="M253,165 Q254,148 258,140 Q262,148 261,165" fill="#2E7D32"/>

  <!-- ===== 얼굴 ===== -->
  <ellipse cx="150" cy="350" rx="32" ry="18" fill="#fed4d2" opacity="0.55"/>
  <ellipse cx="362" cy="350" rx="32" ry="18" fill="#fed4d2" opacity="0.55"/>

  <!-- 왼쪽 눈 -->
  <circle cx="216" cy="315" r="26" fill="#921708"/>
  <circle cx="225" cy="305" r="9.5" fill="white"/>
  <circle cx="220" cy="311" r="4.2" fill="white" opacity="0.4"/>

  <!-- 오른쪽 눈 -->
  <circle cx="296" cy="315" r="26" fill="#921708"/>
  <circle cx="305" cy="305" r="9.5" fill="white"/>
  <circle cx="300" cy="311" r="4.2" fill="white" opacity="0.4"/>

  <!-- 입 -->
  <path d="M242,358 Q256,376 270,358" stroke="#921708" stroke-width="5"
        fill="none" stroke-linecap="round"/>
</svg>
