<svg xmlns="http://www.w3.org/2000/svg" viewBox="0 0 512 512">
  <defs>
    <radialGradient id="bodyGrad" cx="35%" cy="30%" r="65%">
      <stop offset="0%" stop-color="#fc6a66" stop-opacity="0.45"/>
      <stop offset="100%" stop-color="#ca1d13" stop-opacity="0.35"/>
    </radialGradient>
  </defs>

  <!-- ===== 몸체 ===== -->
  <ellipse cx="256" cy="320" rx="170" ry="165" fill="#fa342c"/>
  <ellipse cx="256" cy="320" rx="170" ry="165" fill="url(#bodyGrad)"/>

  <!-- 광택 -->
  <ellipse cx="210" cy="270" rx="55" ry="38" fill="white" opacity="0.16"
           transform="rotate(-20 210 270)"/>

  <!-- ===== 이파리 (모자처럼 위에 얹힘) ===== -->
  <g transform="translate(0,-30)">
  <!-- 왼쪽 아래: 어두운 층 → 본체 → 하이라이트 -->
  <path d="M256,195 C232,198 190,208 172,200 C165,190 172,178 186,182 C208,188 244,194 256,195Z"
        fill="#1B5E20"/>
  <path d="M256,193 C234,196 194,204 178,198 C172,190 178,180 190,183 C210,188 244,192 256,193Z"
        fill="#2E7D32"/>
  <path d="M256,191 C238,193 206,200 194,196 C190,192 194,186 202,188 C216,190 244,191 256,191Z"
        fill="#4CAF50" opacity="0.4"/>

  <!-- 오른쪽 아래 -->
  <path d="M256,195 C280,198 322,208 340,200 C347,190 340,178 326,182 C304,188 268,194 256,195Z"
        fill="#1B5E20"/>
  <path d="M256,193 C278,196 318,204 334,198 C340,190 334,180 322,183 C302,188 268,192 256,193Z"
        fill="#2E7D32"/>
  <path d="M256,191 C274,193 306,200 318,196 C322,192 318,186 310,188 C296,190 268,191 256,191Z"
        fill="#4CAF50" opacity="0.4"/>

  <!-- 왼쪽 위 -->
  <path d="M256,192 C236,182 205,162 195,145 C198,132 210,128 218,136 C232,150 250,180 256,192Z"
        fill="#2E7D32"/>
  <path d="M256,190 C238,181 210,164 202,150 C204,140 214,137 220,143 C232,154 250,178 256,190Z"
        fill="#43a047"/>
  <path d="M256,186 C242,178 220,166 214,158 C216,152 222,150 226,154 C234,162 250,178 256,186Z"
        fill="#66BB6A" opacity="0.5"/>

  <!-- 오른쪽 위 -->
  <path d="M256,192 C276,182 307,162 317,145 C314,132 302,128 294,136 C280,150 262,180 256,192Z"
        fill="#2E7D32"/>
  <path d="M256,190 C274,181 302,164 310,150 C308,140 298,137 292,143 C280,154 262,178 256,190Z"
        fill="#43a047"/>
  <path d="M256,186 C270,178 292,166 298,158 C296,152 290,150 286,154 C278,162 262,178 256,186Z"
        fill="#66BB6A" opacity="0.5"/>

  <!-- 가운데 위 -->
  <path d="M256,190 C248,172 240,140 246,122 C252,115 260,115 266,122 C272,140 264,172 256,190Z"
        fill="#2E7D32"/>
  <path d="M256,188 C250,172 244,144 248,128 C253,122 259,122 264,128 C268,144 262,172 256,188Z"
        fill="#43a047"/>
  <path d="M256,184 C252,172 248,150 251,138 C254,134 258,134 261,138 C264,150 260,172 256,184Z"
        fill="#66BB6A" opacity="0.5"/>

  <!-- 꼭지 줄기 -->
  <path d="M253,165 Q254,148 258,140 Q262,148 261,165" fill="#2E7D32"/>
  </g>

  <!-- ===== 얼굴 ===== -->
  <ellipse cx="150" cy="350" rx="32" ry="18" fill="#fed4d2" opacity="0.55"/>
  <ellipse cx="362" cy="350" rx="32" ry="18" fill="#fed4d2" opacity="0.55"/>

  <!-- 왼쪽 눈 -->
  <circle cx="216" cy="315" r="26" fill="#5A0E04"/>
  <circle cx="225" cy="305" r="9.5" fill="white"/>
  <circle cx="220" cy="311" r="4.2" fill="white" opacity="0.4"/>

  <!-- 오른쪽 눈 -->
  <circle cx="296" cy="315" r="26" fill="#5A0E04"/>
  <circle cx="305" cy="305" r="9.5" fill="white"/>
  <circle cx="300" cy="311" r="4.2" fill="white" opacity="0.4"/>

  <!-- 입 -->
  <path d="M242,358 Q256,376 270,358" stroke="#5A0E04" stroke-width="5"
        fill="none" stroke-linecap="round"/>
</svg>
