<svg xmlns="http://www.w3.org/2000/svg" viewBox="0 0 512 512" role="img" aria-label="토마토 캐릭터">
  <defs>
    <radialGradient id="tfBody" cx="38%" cy="28%" r="72%">
      <stop offset="0%" stop-color="#ff6861"/>
      <stop offset="58%" stop-color="#ff3835"/>
      <stop offset="100%" stop-color="#dc2727"/>
    </radialGradient>
    <radialGradient id="tfShine" cx="30%" cy="25%" r="80%">
      <stop offset="0%" stop-color="#ffffff" stop-opacity="0.92"/>
      <stop offset="100%" stop-color="#ffffff" stop-opacity="0"/>
    </radialGradient>
    <linearGradient id="tfLeaf" x1="0%" y1="0%" x2="100%" y2="100%">
      <stop offset="0%" stop-color="#7fe48c"/>
      <stop offset="100%" stop-color="#2f8f4d"/>
    </linearGradient>
  </defs>
  <ellipse cx="256" cy="456" rx="170" ry="24" fill="#000000" opacity="0.12"/>
  <path d="M256 120 C164 120 82 190 82 294 C82 392 160 448 256 448 C352 448 430 392 430 294 C430 190 348 120 256 120 Z"
        fill="url(#tfBody)" stroke="#b81d1d" stroke-width="14" stroke-linejoin="round"/>
  <path d="M256 78 C246 92 242 111 247 130 C223 107 198 101 170 103 C175 130 193 145 220 152 C194 160 172 179 157 205 C188 211 215 208 236 191 C233 218 240 241 256 259 C272 241 279 218 276 191 C297 208 324 211 355 205 C339 179 317 160 291 152 C318 145 336 130 341 103 C312 101 287 107 264 130 C266 110 264 92 256 78 Z"
        fill="url(#tfLeaf)" stroke="#32844d" stroke-width="10" stroke-linejoin="round"/>
  <ellipse cx="170" cy="212" rx="38" ry="22" transform="rotate(-42 170 212)" fill="url(#tfShine)" opacity="0.88"/>
  <ellipse cx="112" cy="270" rx="17" ry="15" fill="#ffffff" opacity="0.42"/>
  <g transform="translate(182 286) scale(0.84) translate(-182 -286)">
    <ellipse cx="182" cy="286" rx="42" ry="49" fill="#a61d1f"/>
    <circle cx="171" cy="272" r="18" fill="#ffffff"/>
    <circle cx="199" cy="284" r="9" fill="#ffffff"/>
    <path d="M162 302 C170 314 186 315 197 305" fill="none" stroke="#e05f61" stroke-width="8" stroke-linecap="round"/>
  </g>
  <g transform="translate(330 286) scale(0.84) translate(-330 -286)">
    <ellipse cx="330" cy="286" rx="42" ry="49" fill="#a61d1f"/>
    <circle cx="319" cy="272" r="18" fill="#ffffff"/>
    <circle cx="347" cy="284" r="9" fill="#ffffff"/>
    <path d="M310 302 C318 314 334 315 345 305" fill="none" stroke="#e05f61" stroke-width="8" stroke-linecap="round"/>
  </g>
  <ellipse cx="144" cy="352" rx="38" ry="22" fill="#ff9ba1" opacity="0.88"/>
  <ellipse cx="368" cy="352" rx="38" ry="22" fill="#ff9ba1" opacity="0.88"/>
  <path d="M220 332 C228 350 243 354 256 339 C269 354 284 350 292 332"
        fill="none" stroke="#9a1616" stroke-width="10" stroke-linecap="round" stroke-linejoin="round"/>
</svg>
